<?xml version="1.0" encoding="UTF-8"?>
<svg version="1.1" xmlns="http://www.w3.org/2000/svg" width="1024" height="1024">
<path d="M0 0 C337.92 0 675.84 0 1024 0 C1024 337.92 1024 675.84 1024 1024 C686.08 1024 348.16 1024 0 1024 C0 686.08 0 348.16 0 0 Z " fill="#FBFCFD" transform="translate(0,0)"/>
<path d="M0 0 C1.27979736 0.37922607 1.27979736 0.37922607 2.58544922 0.76611328 C15.15010244 4.57234374 27.2603096 9.12664089 39.16210938 14.67407227 C46.86814231 18.20272047 54.40232003 20.29898238 62.9375 20.25 C63.83339844 20.25515625 64.72929688 20.2603125 65.65234375 20.265625 C75.01427605 19.5227879 82.93832763 17.09748235 91.5 13.3125 C93.61737899 12.40755327 95.73588364 11.50523611 97.85546875 10.60546875 C98.89493652 10.16251465 99.9344043 9.71956055 101.00537109 9.26318359 C124.52082918 -0.65602235 152.85419084 -9.44390118 178 0 C179.51400391 0.52787109 179.51400391 0.52787109 181.05859375 1.06640625 C192.7238168 5.47909362 200.40996907 11.73282077 206 23 C212.9695928 40.79470503 211.90370232 60.2020031 209.75 78.875 C209.64075195 79.85919922 209.53150391 80.84339844 209.41894531 81.85742188 C207.7254732 95.27185455 203.48772373 107.95453321 199.02859497 120.65286255 C197.67376421 124.51959724 196.34501293 128.39532984 195.01171875 132.26953125 C194.48632317 133.79383695 193.96077455 135.31808992 193.43505859 136.84228516 C193.18898865 137.55580139 192.9429187 138.26931763 192.68939209 139.00445557 C192.08626314 140.75029896 191.48014785 142.4951101 190.87353516 144.23974609 C183.75474153 164.85051766 178.66249135 186.05742603 173.26286316 207.1661377 C156.99599976 270.74355573 156.99599976 270.74355573 141 282 C138.16873601 274.04836497 135.73500819 266.15369288 133.8125 257.9375 C126.15190548 225.98905333 114.61232321 180.43329634 85.28515625 161.91796875 C75.76764866 156.36137395 67.03286011 154.66584762 56 156 C40.49695726 160.30131646 29.06273826 170.58162499 21.0625 184.22265625 C7.87189255 208.03271346 0.13301574 233.86068135 -7 260 C-7.61050337 262.22009986 -8.22117567 264.44015327 -8.83203125 266.66015625 C-10.23406646 271.77005318 -11.62171739 276.8836479 -13 282 C-30.34349967 264.9233234 -35.88101765 242.17850464 -41.75271606 219.23721313 C-42.45837722 216.48095517 -43.17252895 213.72700412 -43.88842773 210.97338867 C-45.92942678 203.11010232 -47.94677379 195.24143009 -49.9140625 187.359375 C-54.97653075 167.16682962 -61.3585245 147.47541539 -68.16796875 127.81640625 C-68.43512192 127.04364349 -68.70227509 126.27088074 -68.9775238 125.47470093 C-70.27052729 121.73762963 -71.57138437 118.00371455 -72.8894043 114.27539062 C-77.1310998 102.17986931 -81.09556387 89.76490438 -82.25 76.9375 C-82.32371826 76.16422363 -82.39743652 75.39094727 -82.47338867 74.59423828 C-84.28108249 53.39320206 -85.49764765 29.72724719 -71.4375 12.3125 C-53.90229959 -6.2041482 -23.10139108 -6.90737488 0 0 Z " fill="#FBFCFD" transform="translate(448,353)"/>
<path d="M0 0 C2.17252464 -0.00960126 4.34405838 -0.0406218 6.51635742 -0.07226562 C28.76741365 -0.24854677 49.21686845 7.09429559 69.5222168 15.49023438 C71.8517346 16.44833861 74.18219912 17.40393388 76.51483154 18.35443115 C77.94698391 18.93845132 79.37733298 19.52692135 80.80548096 20.1206665 C93.14809697 25.17025113 101.69568786 23.18785819 113.6472168 18.17773438 C114.89610084 17.66919707 116.14578603 17.16262306 117.39624023 16.65795898 C119.87958295 15.65512165 122.36020405 14.64644439 124.83959961 13.63378906 C152.75792266 2.29966474 183.36742455 -5.71430794 213.2722168 3.24023438 C214.31563232 3.53824951 214.31563232 3.53824951 215.38012695 3.84228516 C240.5804821 11.12578248 257.49339768 23.7530304 271.08081055 46.23242188 C275.39560658 54.17336819 277.39953784 62.47225547 279.2722168 71.24023438 C279.44873779 72.02793213 279.62525879 72.81562988 279.80712891 73.62719727 C284.51792186 100.09418784 278.72805189 130.81283285 271.2722168 156.24023438 C271.01069824 157.16376709 270.74917969 158.0872998 270.47973633 159.03881836 C267.56339965 168.97677164 263.82162426 178.59645774 260.16156006 188.27850342 C251.11279324 212.2972181 243.71998721 236.0892428 238.40457153 261.21066284 C231.32715984 294.47464818 220.62937583 333.81683439 191.24487305 354.34960938 C182.37518497 359.99077761 172.14370224 365.83660491 161.2722168 364.24023438 C152.16857887 361.57302817 144.77162706 355.32425354 139.85791016 347.27612305 C133.35028353 334.81694874 129.89963791 320.85204172 126.55749512 307.28308105 C118.7677622 272.46753946 118.7677622 272.46753946 102.07299805 241.50585938 C100.2722168 239.24023438 100.2722168 239.24023438 100.2722168 237.24023438 C97.63651665 235.82825215 95.24934823 234.64620684 92.2722168 234.24023438 C78.90600954 241.33705394 72.56263843 268.12478362 68.2722168 281.24023438 C66.11437022 288.43808626 64.18487045 295.69719387 62.2409668 302.95507812 C49.43590025 350.69986561 49.43590025 350.69986561 35.2722168 360.05273438 C29.49922545 363.37657788 23.99146953 365.27566021 17.2722168 364.24023438 C-2.31041696 358.89007184 -17.93370421 344.56620169 -27.87426758 327.2421875 C-39.48802365 305.41004346 -45.89162114 281.09466483 -50.87084961 257.02783203 C-56.2885319 230.84297001 -64.71524043 205.97214095 -73.95288086 180.91748047 C-88.31917364 141.91991873 -103.35027255 90.18119873 -85.04199219 49.78881836 C-74.35469287 27.93234052 -57.19716371 13.45892549 -34.39477539 5.41748047 C-22.84834262 1.65654562 -12.14886047 0.03232154 0 0 Z M-41.1652832 52.55273438 C-56.05104718 70.99008104 -54.08380273 96.93538503 -51.8527832 119.24023438 C-50.01705772 134.51370883 -44.814208 148.81332856 -39.7277832 163.24023438 C-37.55070185 169.42412618 -35.37911122 175.60982807 -33.2277832 181.80273438 C-32.95141022 182.59771332 -32.67503723 183.39269226 -32.39028931 184.21176147 C-26.67691146 200.72825385 -22.19553937 217.47369204 -17.94262695 234.41552734 C-7.70506199 281.47454104 -7.70506199 281.47454104 16.2722168 322.24023438 C18.50077587 318.89739576 19.33443083 315.74053847 20.3034668 311.90820312 C20.70030504 310.3863546 21.0976241 308.8646314 21.49536133 307.34301758 C21.70308167 306.54159332 21.910802 305.74016907 22.12481689 304.91445923 C28.40567751 280.78907376 35.23488287 256.68187241 46.2722168 234.24023438 C46.58336426 233.58039551 46.89451172 232.92055664 47.21508789 232.24072266 C53.28019742 219.41080396 61.43324451 208.03232751 74.2722168 201.24023438 C75.16295898 200.75683594 76.05370117 200.2734375 76.97143555 199.77539062 C87.05427191 194.91570581 97.29216825 194.53331207 107.8972168 198.11523438 C130.89602907 208.23019112 140.59509139 230.36923681 149.33618164 252.45849609 C156.70316081 271.5167877 162.5538444 291.11560471 167.57348633 310.91064453 C168.57485899 314.81507924 169.64958579 318.53559737 171.2722168 322.24023438 C194.01986083 305.6534106 198.82950006 267.22459303 205.17285156 241.671875 C211.3748323 216.69511575 218.30711643 192.18854655 226.79272461 167.88232422 C235.57990266 143.62103622 235.57990266 143.62103622 240.10253906 118.3203125 C240.29236851 115.99319471 240.55421249 113.67803204 240.8112793 111.35742188 C242.76378301 91.75721618 242.69850118 70.45281556 230.7097168 53.92773438 C221.82581631 43.5631838 207.29367643 38.11803991 193.85058594 37.04736328 C167.40906215 36.20972261 145.61953961 43.13871484 121.60522461 53.5534668 C114.24588984 56.73242458 107.36951285 59.67705304 99.2722168 60.24023438 C97.85102539 60.34271484 97.85102539 60.34271484 96.40112305 60.44726562 C84.07994 60.87986893 73.33446193 57.19287657 62.3347168 51.99023438 C54.16571576 48.26730047 46.01924861 44.89684639 37.4597168 42.17773438 C36.18269897 41.7663623 36.18269897 41.7663623 34.87988281 41.34667969 C10.48517526 33.87284012 -22.27979772 32.61022545 -41.1652832 52.55273438 Z " fill="#5E48CB" transform="translate(417.727783203125,312.759765625)"/>
<path d="M0 0 C2.44042969 0.1159668 2.44042969 0.1159668 5 1 C6.58300781 2.78051758 6.58300781 2.78051758 7.953125 5.14453125 C8.48075439 6.03422607 9.00838379 6.9239209 9.55200195 7.84057617 C10.11234131 8.82131104 10.67268066 9.8020459 11.25 10.8125 C12.49812274 12.93002663 13.74684677 15.04719893 14.99609375 17.1640625 C15.6494873 18.28329102 16.30288086 19.40251953 16.97607422 20.55566406 C20.01106294 25.72063643 23.13156473 30.83302148 26.2515564 35.9468689 C28.03439638 38.8718752 29.80963716 41.80148829 31.5859375 44.73046875 C34.24860774 49.11877616 36.91525049 53.50463958 39.58583069 57.88813782 C41.15861992 60.46992156 42.73027172 63.05239682 44.30184937 65.63491821 C45.05276777 66.86815332 45.80424371 68.10104913 46.55630493 69.33358765 C47.60015814 71.04444065 48.64192183 72.75656802 49.68359375 74.46875 C50.57389282 75.92958008 50.57389282 75.92958008 51.48217773 77.41992188 C54.46370291 82.48808306 55.46590669 85.18762873 54 91 C53.68160156 91.90621094 53.36320313 92.81242187 53.03515625 93.74609375 C49.66093844 103.36441568 47.24313744 115.74343925 51.4375 125.5625 C54.45999654 130.35082786 59.51161621 135.68912509 64.87109375 137.703125 C76.13274012 139.27355642 86.08839233 137.841101 95.8125 131.875 C101.83056484 127.2200631 105.33310927 119.88042759 106.34375 112.484375 C106.71380271 106.78669867 106.71380271 106.78669867 104.4375 101.71484375 C102.54793429 99.68039637 102.54793429 99.68039637 100.53125 97.94921875 C98.36033433 95.18573171 98.6250812 93.4431209 99 90 C100.63916016 87.89916992 100.63916016 87.89916992 102.9140625 86.04296875 C103.73938477 85.36411621 104.56470703 84.68526367 105.41503906 83.98583984 C109.32886322 80.97912982 113.30085151 78.09790803 117.375 75.3125 C118.67256226 74.4153125 118.67256226 74.4153125 119.99633789 73.5 C122.66017457 71.66070149 125.32976017 69.82998582 128 68 C129.59529625 66.90009364 131.19035696 65.79984555 132.78515625 64.69921875 C141.29317608 58.84033343 149.853482 53.05937082 158.4375 47.3125 C159.33202881 46.71179688 160.22655762 46.11109375 161.14819336 45.4921875 C161.98487549 44.93402344 162.82155762 44.37585938 163.68359375 43.80078125 C164.42150146 43.30747314 165.15940918 42.81416504 165.91967773 42.3059082 C171.33691585 38.90527369 171.33691585 38.90527369 174.1875 39.3125 C176 40 176 40 177 41 C176.96963189 49.03345057 174.74005159 56.84364033 172.75 64.5625 C172.46253906 65.71041016 172.17507813 66.85832031 171.87890625 68.04101562 C170.23352334 74.52554869 168.44351579 80.95107185 166.52734375 87.359375 C164.24042969 95.02208674 162.24336684 102.73311061 160.347229 110.50067139 C159.40259671 114.36384119 158.44134912 118.22287615 157.48046875 122.08203125 C157.28110718 122.88302246 157.08174561 123.68401367 156.87634277 124.50927734 C154.72442626 133.13579357 152.52258318 141.74908794 150.28085327 150.35269165 C149.84676758 152.02211682 149.4151103 153.69217549 148.98599243 155.36288452 C148.38528002 157.69942616 147.77584486 160.03352342 147.1640625 162.3671875 C146.98937943 163.05314499 146.81469635 163.73910248 146.63471985 164.44584656 C144.13566813 173.86433187 144.13566813 173.86433187 141 177 C135.53899699 177.28742121 130.5054644 176.80918643 125.1015625 176 C115.40450149 174.68929701 105.73289577 174.73319586 95.96362305 174.79418945 C92.93855332 174.81249363 89.91379143 174.8146979 86.88867188 174.81445312 C84.91405993 174.81936945 82.93945 174.82519827 80.96484375 174.83203125 C80.08626205 174.83314407 79.20768036 174.8342569 78.30247498 174.83540344 C73.40073928 174.87142409 68.56538321 175.10363761 63.6796875 175.50219727 C51.57040964 176.3506786 39.42251519 176.14566246 27.28983235 176.1343255 C23.68349081 176.13176342 20.0771516 176.13414967 16.47080994 176.13571167 C10.42674291 176.13752063 4.38268819 176.13515901 -1.66137695 176.13037109 C-8.63078952 176.12491363 -15.6001729 176.126707 -22.56958479 176.1321975 C-28.58440237 176.13674449 -34.5992112 176.13737193 -40.61402994 176.13475883 C-44.19334903 176.133207 -47.7726544 176.13297249 -51.35197258 176.13629532 C-55.33614096 176.13973728 -59.3202769 176.13495843 -63.30444336 176.12939453 C-64.47706223 176.13141876 -65.64968109 176.13344299 -66.85783386 176.13552856 C-72.6765811 176.1204972 -78.24329705 175.83757264 -84 175 C-86.7216498 174.88412778 -89.40457722 174.81001673 -92.125 174.8125 C-92.88780273 174.81185547 -93.65060547 174.81121094 -94.43652344 174.81054688 C-101.68728052 174.87463553 -108.84818388 175.55484242 -116.05761719 176.28393555 C-123.40574304 177.00816871 -130.61296559 177.22690549 -138 177 C-140.96102297 171.4620444 -142.97586465 166.27532917 -144.48828125 160.1953125 C-144.81827621 158.91673874 -144.81827621 158.91673874 -145.15493774 157.61233521 C-145.88252477 154.7853034 -146.59738546 151.95521003 -147.3125 149.125 C-147.8272855 147.11662571 -148.34301483 145.10849315 -148.85961914 143.10058594 C-149.97695993 138.75275696 -151.08933034 134.40369719 -152.19824219 130.05371094 C-155.09091464 118.71534349 -158.02414379 107.38741111 -160.95370483 96.05853271 C-161.91646562 92.3314297 -162.87616918 88.60355128 -163.83520508 84.87548828 C-164.44068107 82.52630612 -165.04638799 80.17718346 -165.65234375 77.828125 C-166.08450951 76.14981094 -166.08450951 76.14981094 -166.52540588 74.43759155 C-167.81738904 69.44773699 -169.13405353 64.46955129 -170.55126953 59.51367188 C-170.78761612 58.68631531 -171.02396271 57.85895874 -171.26747131 57.00653076 C-171.69800092 55.51508349 -172.13549866 54.02561844 -172.58201599 52.53887939 C-173.72593273 48.5958864 -174.39367843 45.10577422 -174 41 C-173.34 40.34 -172.68 39.68 -172 39 C-167.92057411 39.31616091 -165.24359294 40.88524273 -161.89453125 43.140625 C-160.9202417 43.79248779 -159.94595215 44.44435059 -158.94213867 45.1159668 C-157.90935791 45.82019775 -156.87657715 46.52442871 -155.8125 47.25 C-154.74040283 47.97292236 -153.66830566 48.69584473 -152.5637207 49.44067383 C-145.46240931 54.25376724 -138.46253323 59.19189112 -131.54077148 64.2590332 C-125.30315769 68.81928162 -118.94582704 73.1896811 -112.54174805 77.51245117 C-96.94414351 88.07483643 -96.94414351 88.07483643 -95 93 C-95.44486199 96.36726309 -96.73476182 98.15284102 -99 100.625 C-102.28396849 104.240523 -103.42823426 106.4524394 -103.3359375 111.51953125 C-102.23118332 119.67672783 -98.61320523 126.59369878 -92.1015625 131.60546875 C-84.26752161 136.80389365 -75.53186088 140.02127081 -66 139 C-58.37407015 136.52056762 -52.31237625 132.67035927 -48.125 125.6875 C-43.99022198 116.70874255 -44.93691622 106.30325628 -47.9375 97.125 C-48.86690673 94.67989412 -49.83099773 92.33800454 -51 90 C-51.49755934 84.32359448 -50.44059002 81.20956573 -47.49609375 76.3828125 C-47.1342247 75.77986359 -46.77235565 75.17691467 -46.39952087 74.55569458 C-45.27949462 72.69544158 -44.14009156 70.8480021 -43 69 C-41.69916323 66.83076246 -40.39838032 64.66149262 -39.09765625 62.4921875 C-37.75450587 60.2852998 -36.4093937 58.07960509 -35.0625 55.875 C-34.33135411 54.67532667 -33.60040167 53.47553542 -32.86962891 52.27563477 C-31.73439506 50.41174842 -30.59898993 48.54796837 -29.46282959 46.68464661 C-26.75522252 42.24366323 -24.05696021 37.79709939 -21.36328125 33.34765625 C-20.60345349 32.09325006 -19.8436067 30.8388554 -19.08374023 29.58447266 C-17.99610734 27.78897651 -16.90875124 25.99331721 -15.82254028 24.19696045 C-3.00708772 3.00708772 -3.00708772 3.00708772 0 0 Z " fill="#5B4ECF" transform="translate(510,118)"/>
<path d="M0 0 C6.93 0 13.86 0 21 0 C21 39.27 21 78.54 21 119 C14.4 119 7.8 119 1 119 C0.67 117.02 0.34 115.04 0 113 C-0.4846875 113.32613281 -0.969375 113.65226563 -1.46875 113.98828125 C-2.47421875 114.64376953 -2.47421875 114.64376953 -3.5 115.3125 C-4.47453125 115.95638672 -4.47453125 115.95638672 -5.46875 116.61328125 C-12.27249463 120.34064135 -18.13526671 121.5037748 -25.875 121.375 C-26.75978027 121.36412354 -27.64456055 121.35324707 -28.55615234 121.34204102 C-40.5753886 121.04826702 -49.41854423 117.67108649 -58.0078125 108.96484375 C-68.11269819 96.91334588 -70.28635783 82.28517451 -69 67 C-67.01762009 55.54765234 -61.53333288 46.06073098 -52.1875 39.0625 C-40.7232663 31.83655876 -29.22016241 30.28785939 -15.96875 32.5078125 C-10.01186083 34.10734755 -6.56961643 36.51898973 -1 40 C-0.67 26.8 -0.34 13.6 0 0 Z " fill="#351C8C" transform="translate(345,738)"/>
<path d="M0 0 C8.57129721 7.23995667 15.23921368 16.17932456 16.48901367 27.59082031 C16.60439259 30.35290646 16.61977354 33.0913459 16.578125 35.85546875 C16.56797363 36.82709961 16.55782227 37.79873047 16.54736328 38.79980469 C16.26665277 51.75600943 12.83337529 62.09590299 3.953125 71.79296875 C-6.28076758 81.39290338 -19.1901361 82.64376655 -32.54296875 82.34765625 C-44.42107904 81.74940172 -52.90574801 76.67359776 -60.796875 67.98046875 C-69.48713662 57.93880575 -71.73326963 45.02346199 -71.171875 32.09375 C-70.35601934 21.11284269 -66.29884658 12.03575899 -58.796875 3.98046875 C-42.96405397 -9.54804499 -17.36742764 -12.54044705 0 0 Z " fill="#331A8B" transform="translate(724.796875,777.01953125)"/>
<path d="M0 0 C8.23395124 6.94473583 15.36537494 15.82085709 16.58764648 26.85131836 C16.74489717 30.13013541 16.78816188 33.38544007 16.76953125 36.66796875 C16.76381104 37.82611084 16.75809082 38.98425293 16.75219727 40.17749023 C16.57327697 48.73253121 15.75585564 55.52609261 11.26953125 62.98046875 C10.77324219 63.81191406 10.27695312 64.64335938 9.765625 65.5 C4.33897141 73.38499305 -4.33110612 79.15113908 -13.6015625 81.546875 C-28.36242722 83.59238809 -42.19403361 83.0744712 -54.40625 73.9296875 C-60.84109139 68.53307262 -64.87149392 62.86636142 -67.73046875 54.98046875 C-68.08753906 54.14128906 -68.44460937 53.30210937 -68.8125 52.4375 C-70.15316976 47.38859474 -70.09905019 42.49520952 -70.10546875 37.29296875 C-70.12996094 36.26751953 -70.15445313 35.24207031 -70.1796875 34.18554688 C-70.22626332 21.89729398 -66.1499197 12.58160227 -57.66015625 3.8515625 C-42.85481368 -10.1541884 -16.53002196 -12.22606775 0 0 Z " fill="#331A8B" transform="translate(246.73046875,777.01953125)"/>
<path d="M0 0 C6.6 0 13.2 0 20 0 C22.07887857 5.56842473 24.0725299 11.11926996 25.78125 16.8125 C28.28928657 25.02918843 31.01937894 33.16783934 33.75 41.3125 C34.26186081 42.84305146 34.77358039 44.37365015 35.28515625 45.90429688 C36.52181553 49.60340935 37.76036507 53.30188371 39 57 C40.37760756 54.36835567 41.4679164 51.80542002 42.35693359 48.97265625 C42.60414154 48.19083984 42.85134949 47.40902344 43.10604858 46.60351562 C43.36753693 45.76498047 43.62902527 44.92644531 43.8984375 44.0625 C44.17466949 43.18658203 44.45090149 42.31066406 44.73550415 41.40820312 C45.61848846 38.60644932 46.49694962 35.80330356 47.375 33 C48.52717881 29.3328709 49.68120435 25.66632549 50.8359375 22 C51.11177673 21.12327637 51.38761597 20.24655273 51.67181396 19.34326172 C53.71269714 12.87112802 55.82501163 6.42853704 58 0 C63.94 0 69.88 0 76 0 C80.02781349 9.44987011 82.97778954 19.1954118 86 29 C86.54333984 30.74216797 86.54333984 30.74216797 87.09765625 32.51953125 C88.99591186 38.62930134 90.81978759 44.75956521 92.62109375 50.8984375 C92.96569641 52.07152466 92.96569641 52.07152466 93.31726074 53.26831055 C93.87843847 55.17879598 94.43925634 57.08938712 95 59 C95.22328476 58.29034088 95.44656952 57.58068176 95.67662048 56.84951782 C97.77904558 50.1684818 99.8830737 43.48795328 101.98891354 36.80799294 C103.07154175 33.37357654 104.15354453 29.93896569 105.23413086 26.50390625 C106.27657234 23.19018457 107.32063981 19.87697931 108.36584663 16.56412888 C108.95913904 14.68215829 109.55073719 12.79965386 110.14231873 10.91714478 C110.68276573 9.20559708 110.68276573 9.20559708 111.23413086 7.45947266 C111.55167831 6.451315 111.86922577 5.44315735 112.19639587 4.40444946 C113 2 113 2 114 0 C120.6 0 127.2 0 134 0 C131.89409191 7.13002624 129.65320424 14.20039142 127.3046875 21.25390625 C126.95294464 22.31246323 126.60120178 23.3710202 126.23880005 24.46165466 C125.49494799 26.69824978 124.75029513 28.9345787 124.00488281 31.1706543 C122.89580084 34.50005703 121.79151425 37.83102338 120.6875 41.16210938 C115.68943701 56.19426992 110.43118788 71.11905744 105 86 C98.07 86 91.14 86 84 86 C82.52485524 81.30847132 81.04979972 76.61691475 79.57495117 71.92529297 C79.07565109 70.33706146 78.57630393 68.74884474 78.0769043 67.16064453 C77.83689697 66.3973584 77.59688965 65.63407227 77.34960938 64.84765625 C77.10926971 64.08340332 76.86893005 63.31915039 76.62130737 62.53173828 C76.13643949 60.98863072 75.652167 59.44533595 75.16848755 57.90185547 C73.96351489 54.05731014 72.75081751 50.21558182 71.52099609 46.37890625 C71.28781174 45.64643677 71.05462738 44.91396729 70.81437683 44.15930176 C70.37375824 42.77562585 69.92985346 41.39299062 69.48213196 40.01159668 C68.59365629 37.21001069 68 34.96141701 68 32 C67.34 32 66.68 32 66 32 C65.63648438 33.54107422 65.63648438 33.54107422 65.265625 35.11328125 C63.52917134 42.34179473 61.66268415 49.35287596 58.99609375 56.3046875 C57.8973034 59.27788492 56.97327623 62.27657924 56.0625 65.3125 C53.95227724 72.30734197 51.49650458 79.13461241 49 86 C42.4 86 35.8 86 29 86 C24.98651816 75.44397281 21.18952574 64.85897168 17.63671875 54.140625 C17.15466467 52.69326564 16.67238545 51.24598125 16.18989563 49.79876709 C15.19235878 46.80461239 14.19680363 43.80980943 13.20288086 40.81445312 C11.93059736 36.98042489 10.6542535 33.14776328 9.37658978 29.31552505 C8.38625758 26.3442568 7.39748804 23.37247051 6.40925026 20.40050507 C5.93874514 18.98581856 5.46788237 17.57125096 4.99664879 16.15680695 C4.34220254 14.19129884 3.68973522 12.22514509 3.0378418 10.25878906 C2.667332 9.14344788 2.2968222 8.02810669 1.91508484 6.87896729 C1.1940824 4.61060664 0.57728087 2.3091235 0 0 Z " fill="#331A8B" transform="translate(745,771)"/>
<path d="M0 0 C1.41345703 -0.01160156 1.41345703 -0.01160156 2.85546875 -0.0234375 C16.87275671 0.01533785 30.98260118 4.14653553 41.125 14.25 C43.69348733 17.44934387 45.96272245 20.76570819 48.125 24.25 C48.70507812 25.11367188 49.28515625 25.97734375 49.8828125 26.8671875 C50.29273438 27.65351562 50.70265625 28.43984375 51.125 29.25 C50.125 32.25 50.125 32.25 48.35913086 33.32495117 C47.61026611 33.64439697 46.86140137 33.96384277 46.08984375 34.29296875 C45.28095703 34.64423828 44.47207031 34.99550781 43.63867188 35.35742188 C42.78853516 35.71384766 41.93839844 36.07027344 41.0625 36.4375 C40.20849609 36.80552734 39.35449219 37.17355469 38.47460938 37.55273438 C36.36199623 38.4615121 34.24560231 39.36006202 32.125 40.25 C31.47144531 39.25419922 31.47144531 39.25419922 30.8046875 38.23828125 C25.74292279 30.73328378 21.11938533 24.97766592 12.125 22.25 C8.84399783 21.81255647 5.61920956 21.77295649 2.3125 21.8125 C0.9807373 21.82494751 0.9807373 21.82494751 -0.37792969 21.83764648 C-10.15065599 22.08995594 -16.96695571 24.55311327 -24.125 31.3359375 C-31.44842594 39.34593462 -34.44065242 48.77358421 -34.25 59.5 C-34.24129883 60.32411377 -34.23259766 61.14822754 -34.22363281 61.99731445 C-33.93548968 74.12176332 -31.73810857 85.82895425 -22.8125 94.5 C-14.52190845 101.34816343 -6.14816622 102.96316564 4.47265625 102.62890625 C13.82267964 101.65890382 20.78158404 98.16748075 27.125 91.25 C28.9386764 88.97626909 30.53164489 86.68982501 32.125 84.25 C38.98118326 86.17556636 45.55752132 88.4972483 52.125 91.25 C49.60208337 101.08937485 42.65102238 109.67956731 34.2109375 115.1328125 C27.05928494 119.21215609 20.19255748 121.70767284 12.125 123.25 C10.94357422 123.52070312 10.94357422 123.52070312 9.73828125 123.796875 C-5.08244789 126.36668753 -20.08595421 123.19800175 -32.640625 114.8984375 C-44.43369966 106.19795235 -51.00818245 96.41611358 -54.875 82.25 C-55.23464844 81.02023437 -55.59429687 79.79046875 -55.96484375 78.5234375 C-57.14808615 73.70664303 -57.17768326 69.00121821 -57.125 64.0625 C-57.11750732 63.13630859 -57.11001465 62.21011719 -57.10229492 61.25585938 C-56.82795239 43.68567599 -53.06536142 28.48308284 -40.875 15.25 C-34.06748066 9.10588209 -26.50488098 5.2266167 -17.875 2.25 C-16.82570313 1.88132812 -15.77640625 1.51265625 -14.6953125 1.1328125 C-9.73955153 -0.0123838 -5.06776274 -0.04125723 0 0 Z " fill="#331A8B" transform="translate(533.875,735.75)"/>
<path d="M0 0 C1.34529518 1.02065831 2.65925092 2.08403192 3.9375 3.1875 C4.63101563 3.78433594 5.32453125 4.38117187 6.0390625 4.99609375 C11.09189498 9.6988236 14.89420604 14.9856358 17.9375 21.1875 C17.9375 21.8475 17.9375 22.5075 17.9375 23.1875 C11.6675 26.1575 5.3975 29.1275 -1.0625 32.1875 C-2.09375 30.640625 -3.125 29.09375 -4.1875 27.5 C-9.09315855 20.53966682 -13.68414123 16.57805688 -22.0625 14.1875 C-34.343262 12.22437387 -44.85865133 14.0560809 -55.0625 21.1875 C-57.69763694 23.28131036 -59.37062228 25.28713819 -61.0625 28.1875 C-61.78373047 29.30898438 -61.78373047 29.30898438 -62.51953125 30.453125 C-66.29553434 37.56823826 -66.52482071 44.31607846 -66.5625 52.25 C-66.56878418 53.25474365 -66.57506836 54.2594873 -66.58154297 55.29467773 C-66.39812571 66.20088176 -64.01470027 76.55404868 -57.0625 85.1875 C-54.26935076 87.68081966 -51.39430683 89.49364518 -48.0625 91.1875 C-47.06476563 91.69603516 -47.06476563 91.69603516 -46.046875 92.21484375 C-37.59796063 95.71372623 -26.04043328 95.68354519 -17.5 92.5625 C-9.73937083 88.83843969 -5.17145588 83.64800054 -1.0625 76.1875 C3.50486441 76.88812483 7.5074505 78.50020207 11.75 80.25 C12.44287109 80.53166016 13.13574219 80.81332031 13.84960938 81.10351562 C15.54717624 81.79424973 17.24256312 82.49033728 18.9375 83.1875 C17.7212554 91.71660768 11.82533221 99.34323353 5.20703125 104.6328125 C-8.90843246 114.30226957 -25.4367902 118.010773 -42.33203125 115.75 C-57.68049361 112.78052723 -71.12374572 104.85483915 -80.2578125 92.12890625 C-83.72878797 86.42866411 -86.4638811 80.67203866 -88.0625 74.1875 C-88.26617187 73.383125 -88.46984375 72.57875 -88.6796875 71.75 C-92.56587419 53.86289412 -90.57633819 33.39761453 -81.49609375 17.43359375 C-75.61552876 8.49677225 -68.51166995 2.6321371 -59.0625 -2.1875 C-58.41031494 -2.52152832 -57.75812988 -2.85555664 -57.08618164 -3.19970703 C-39.83103163 -11.54696371 -16.26420293 -10.13043357 0 0 Z " fill="#341B8C" transform="translate(147.0625,743.8125)"/>
<path d="M0 0 C8.25654292 6.56770459 12.39845663 13.13286989 15.75 23.1875 C15.75 30.7775 15.75 38.3675 15.75 46.1875 C-4.05 46.1875 -23.85 46.1875 -44.25 46.1875 C-41.3880238 56.86657829 -41.3880238 56.86657829 -33.875 63.5 C-27.1995009 66.53884661 -19.14181052 66.52212612 -12.265625 64.1640625 C-8.21341278 62.18591156 -4.87027089 59.90270317 -1.25 57.1875 C3.7 60.4875 8.65 63.7875 13.75 67.1875 C7.30709851 75.66500196 -0.90760921 80.6700577 -11.25 83.1875 C-14.84432297 83.63044434 -18.38090979 83.71246796 -22 83.6875 C-22.96574951 83.68177979 -23.93149902 83.67605957 -24.92651367 83.67016602 C-36.7503095 83.37588399 -46.77079664 79.73294713 -55.25 71.1875 C-66.18577608 58.11583015 -67.48259405 43.66127057 -66.25 27.1875 C-64.10877694 15.72277997 -57.86264837 5.82088578 -48.25 -0.8125 C-34.09078755 -9.89186513 -14.11724081 -7.87307661 0 0 Z " fill="#33198B" transform="translate(447.25,775.8125)"/>
<path d="M0 0 C5.90805775 4.7396732 10.22719856 10.99323002 11.71875 18.4921875 C11.80585106 20.60042887 11.836429 22.71125327 11.83227539 24.82128906 C11.83216209 26.74282806 11.83216209 26.74282806 11.83204651 28.70318604 C11.82694026 30.09639525 11.82172427 31.48960407 11.81640625 32.8828125 C11.81454032 34.31199087 11.81311724 35.74116988 11.81211853 37.17034912 C11.80830715 40.92518898 11.79848867 44.67998993 11.78741455 48.43481445 C11.77717075 52.26903762 11.77261455 56.10326709 11.76757812 59.9375 C11.75686513 67.45574893 11.73927953 74.9739578 11.71875 82.4921875 C5.11875 82.4921875 -1.48125 82.4921875 -8.28125 82.4921875 C-8.2905957 80.76661621 -8.29994141 79.04104492 -8.30957031 77.26318359 C-8.34516171 71.54733594 -8.39900007 65.83185287 -8.46515274 60.11627769 C-8.50457995 56.65253239 -8.53679121 53.18903946 -8.55224609 49.72509766 C-8.57035553 45.73827813 -8.62032812 41.75215794 -8.671875 37.765625 C-8.67310364 36.52791351 -8.67433228 35.29020203 -8.67559814 34.01498413 C-8.81926097 25.45974763 -8.81926097 25.45974763 -13.28125 18.4921875 C-18.01536115 14.33190801 -22.4120087 14.20515165 -28.4921875 14.27734375 C-34.96318223 14.77580973 -39.0178993 17.60187346 -43.28125 22.4921875 C-44.60335059 25.13638867 -44.44247122 27.17418365 -44.48657227 30.13525391 C-44.50651749 31.31632721 -44.52646271 32.49740051 -44.54701233 33.71426392 C-44.57208107 35.63460953 -44.57208107 35.63460953 -44.59765625 37.59375 C-44.61843735 38.90048676 -44.63921844 40.20722351 -44.66062927 41.55355835 C-44.71584294 45.0288765 -44.76525525 48.50425403 -44.81347656 51.97967529 C-44.86369677 55.5255665 -44.91938012 59.0713714 -44.97460938 62.6171875 C-45.0821823 69.57544762 -45.18312439 76.53378781 -45.28125 83.4921875 C-52.21125 83.4921875 -59.14125 83.4921875 -66.28125 83.4921875 C-66.28125 54.7821875 -66.28125 26.0721875 -66.28125 -3.5078125 C-60.01125 -3.5078125 -53.74125 -3.5078125 -47.28125 -3.5078125 C-47.28125 -0.5378125 -47.28125 2.4321875 -47.28125 5.4921875 C-46.59160156 4.94949219 -45.90195312 4.40679688 -45.19140625 3.84765625 C-31.55343494 -6.53516141 -15.27557616 -10.09652808 0 0 Z " fill="#351C8C" transform="translate(955.28125,774.5078125)"/>
<path d="M0 0 C0 6.93 0 13.86 0 21 C-7.625 21.25 -7.625 21.25 -9.99072266 21.29785156 C-16.14308214 21.59461427 -19.86115375 23.80004386 -24.1875 28.25 C-28.89886176 35.39827301 -29.45887398 41.93968912 -29.51171875 50.28125 C-29.52966995 51.33534058 -29.54762115 52.38943115 -29.56611633 53.47546387 C-29.61996756 56.81693615 -29.65403452 60.15826765 -29.6875 63.5 C-29.72069526 65.77606115 -29.75518694 68.05210378 -29.79101562 70.328125 C-29.87567973 75.88531469 -29.94261103 81.44246443 -30 87 C-36.27 87 -42.54 87 -49 87 C-49 58.62 -49 30.24 -49 1 C-42.73 1 -36.46 1 -30 1 C-30 4.3 -30 7.6 -30 11 C-29.35933594 10.45730469 -28.71867188 9.91460938 -28.05859375 9.35546875 C-18.44151002 1.40095091 -12.48702984 -0.3861968 0 0 Z " fill="#32188A" transform="translate(649,770)"/>
<path d="M0 0 C5.28618481 2.38730927 9.04473562 7.16244051 11.73046875 12.18359375 C14.16577114 20.42703518 14.12712232 31.96312964 10.5625 39.8125 C7.5604951 44.70465613 3.20386708 48.75810217 -2.29296875 50.6328125 C-9.45010761 51.85826068 -17.32481502 52.20317543 -23.72265625 48.40234375 C-28.69450284 44.33652843 -32.96104835 38.45307203 -33.65673828 31.95092773 C-33.77900639 29.5262846 -33.80872159 27.11512697 -33.8125 24.6875 C-33.83699219 23.87087891 -33.86148437 23.05425781 -33.88671875 22.21289062 C-33.91950992 15.35407038 -32.22327038 10.1645374 -27.65625 4.9765625 C-27.0890625 4.53054688 -26.521875 4.08453125 -25.9375 3.625 C-25.3703125 3.16351562 -24.803125 2.70203125 -24.21875 2.2265625 C-17.31714172 -2.52586074 -7.93199045 -2.41543914 0 0 Z " fill="#FAFAFD" transform="translate(331.4375,790)"/>
<path d="M0 0 C6.90585022 3.94998727 10.33480487 10.70918189 12.41015625 18.1640625 C13.42344008 28.76819557 12.35023286 37.19039796 6.47265625 46.1015625 C1.21610733 51.35811142 -3.75634335 52.31324431 -10.96484375 52.4140625 C-17.15965548 52.33109627 -20.88795737 51.81995933 -25.42578125 47.359375 C-31.96762839 40.28349952 -32.97057555 34.8754292 -33.02734375 25.4140625 C-33.06021484 24.46273437 -33.09308594 23.51140625 -33.12695312 22.53125 C-33.17871074 15.6616023 -31.81105047 10.66379049 -27.58984375 5.1640625 C-20.19619326 -1.61880373 -9.50053622 -3.06653809 0 0 Z " fill="#F9F9FC" transform="translate(230.58984375,788.8359375)"/>
<path d="M0 0 C5.27643011 3.15451091 8.59598746 8.85046239 10.5 14.5625 C11.37314677 24.11295722 12.33925276 35.3662506 7.0625 43.74609375 C2.71611689 48.79876412 -1.85109796 51.2246387 -8.453125 51.8359375 C-15.90090461 52.06537147 -20.85838019 51.62789736 -26.5 46.5625 C-33.23077331 39.98129943 -34.66204224 33.23524328 -34.9375 24.0625 C-34.80348389 17.69354381 -33.88629556 12.95940855 -30.5 7.5625 C-29.9225 6.634375 -29.345 5.70625 -28.75 4.75 C-21.19841848 -2.59181536 -9.76780433 -4.07617988 0 0 Z " fill="#FAFAFC" transform="translate(709.5,789.4375)"/>
<path d="M0 0 C6.60336772 5.55283195 7.91490604 9.31924829 9 18 C-4.53 18 -18.06 18 -32 18 C-31.01239371 10.09914968 -30.36276036 7.28097534 -25 2 C-17.68744005 -3.57445683 -8.29458321 -3.41541662 0 0 Z " fill="#F7F7FB" transform="translate(434,788)"/>
<path d="M0 0 C6.6 0 13.2 0 20 0 C18.2177429 6.11059576 16.30678315 12.0682719 14 18 C12.26808968 12.80426904 15.21780029 8.02256281 17 3 C11.72 2.67 6.44 2.34 1 2 C0.67 2.66 0.34 3.32 0 4 C0 2.68 0 1.36 0 0 Z " fill="#251285" transform="translate(859,771)"/>
<path d="M0 0 C6.27 0 12.54 0 19 0 C19 2.97 19 5.94 19 9 C18.67 9 18.34 9 18 9 C18 6.69 18 4.38 18 2 C12.72 2 7.44 2 2 2 C1.67 4.97 1.34 7.94 1 11 C0.67 11 0.34 11 0 11 C0 7.37 0 3.74 0 0 Z " fill="#281587" transform="translate(889,771)"/>
<path d="M0 0 C0.33 0.66 0.66 1.32 1 2 C0.02417969 2.20496094 -0.95164062 2.40992188 -1.95703125 2.62109375 C-3.22933594 2.89050781 -4.50164063 3.15992188 -5.8125 3.4375 C-7.07707031 3.70433594 -8.34164062 3.97117187 -9.64453125 4.24609375 C-12.97045413 4.93427886 -12.97045413 4.93427886 -16 6 C-18.33299825 6.03954234 -20.66708189 6.04401732 -23 6 C-22 4 -22 4 -19.12109375 2.9296875 C-12.57792087 1.05624458 -6.81826679 -0.54546134 0 0 Z " fill="#4E4CCC" transform="translate(584,315)"/>
<path d="M0 0 C6.6 0 13.2 0 20 0 C19.67 1.32 19.34 2.64 19 4 C19 3.34 19 2.68 19 2 C13.72 2 8.44 2 3 2 C2.67 2.99 2.34 3.98 2 5 C1.34 3.35 0.68 1.7 0 0 Z " fill="#291688" transform="translate(745,771)"/>
<path d="M0 0 C2.97922593 -0.02683987 5.95821295 -0.04676037 8.9375 -0.0625 C9.78763672 -0.07087891 10.63777344 -0.07925781 11.51367188 -0.08789062 C12.32255859 -0.09111328 13.13144531 -0.09433594 13.96484375 -0.09765625 C14.7137085 -0.10289307 15.46257324 -0.10812988 16.23413086 -0.11352539 C18 0 18 0 19 1 C19.04063832 2.66617115 19.042721 4.33388095 19 6 C18.34 5.01 17.68 4.02 17 3 C14.22737745 2.61605333 11.65676472 2.39657752 8.875 2.3125 C8.12089844 2.27833984 7.36679687 2.24417969 6.58984375 2.20898438 C4.72708799 2.12645722 2.86356674 2.06155289 1 2 C0.67 2.66 0.34 3.32 0 4 C0 2.68 0 1.36 0 0 Z " fill="#251286" transform="translate(803,771)"/>
<path d="M0 0 C5.64467282 2.29968152 9.48179701 7.17875887 13 12 C13 12.66 13 13.32 13 14 C13.66 14 14.32 14 15 14 C14.67 14.99 14.34 15.98 14 17 C11.7376037 14.85139286 9.92970242 12.60371612 8.125 10.0625 C5.73022944 6.79962512 3.22530561 4.46641017 0 2 C0 1.34 0 0.68 0 0 Z " fill="#2A1987" transform="translate(133,759)"/>
<path d="M0 0 C5.70629354 0.42797202 9.41078616 2.84345952 14 6 C12 7 12 7 9.8125 6.3125 C6.41196498 4.72558366 3.2345614 2.90268318 0 1 C0 0.67 0 0.34 0 0 Z " fill="#4935C2" transform="translate(522,510)"/>
<path d="M0 0 C2 2 2 2 2.1953125 5.4765625 C2.18201493 6.85950968 2.15816232 8.24238654 2.125 9.625 C2.11597656 10.33140625 2.10695313 11.0378125 2.09765625 11.765625 C2.07407603 13.51056098 2.03820461 15.25532295 2 17 C1.67 17 1.34 17 1 17 C0.67 14.03 0.34 11.06 0 8 C-0.33 8 -0.66 8 -1 8 C-1.125 2.25 -1.125 2.25 0 0 Z " fill="#5745A0" transform="translate(647,774)"/>
<path d="M0 0 C0.33 0 0.66 0 1 0 C1.144375 1.134375 1.28875 2.26875 1.4375 3.4375 C1.61171478 6.80777201 1.61171478 6.80777201 3 8 C2.71269945 10.33944736 2.38063221 12.6739143 2 15 C1.67 15 1.34 15 1 15 C-0.32286246 10.03926578 -0.08893197 5.08888488 0 0 Z " fill="#5D2AC6" transform="translate(328,426)"/>
<path d="M0 0 C1.32757546 3.98272639 0.3296542 6.0810192 -1 10 C-1.66 10.99 -2.32 11.98 -3 13 C-2.52060632 8.28596212 -2.03165952 4.33420699 0 0 Z " fill="#5B35C8" transform="translate(439,620)"/>
<path d="M0 0 C-1.98 0.66 -3.96 1.32 -6 2 C-6 2.66 -6 3.32 -6 4 C-6.99 4.33 -7.98 4.66 -9 5 C-9.66 4.34 -10.32 3.68 -11 3 C-9.73581754 2.30034557 -8.46334598 1.61565237 -7.1875 0.9375 C-6.47980469 0.55464844 -5.77210938 0.17179687 -5.04296875 -0.22265625 C-3 -1 -3 -1 0 0 Z " fill="#433DC8" transform="translate(539,330)"/>
<path d="M0 0 C2.4294516 3.6441774 2.16179575 5.71241272 2 10 C1.01 10.495 1.01 10.495 0 11 C-0.19491452 9.54263913 -0.38069358 8.08405407 -0.5625 6.625 C-0.66691406 5.81289063 -0.77132813 5.00078125 -0.87890625 4.1640625 C-1 2 -1 2 0 0 Z " fill="#412E93" transform="translate(461,796)"/>
<path d="M0 0 C4.92307692 4.18461538 4.92307692 4.18461538 5.3125 8.3125 C5.209375 9.199375 5.10625 10.08625 5 11 C3 10 3 10 2.1484375 7.71484375 C1.89320313 6.79832031 1.63796875 5.88179687 1.375 4.9375 C1.11460937 4.01839844 0.85421875 3.09929688 0.5859375 2.15234375 C0.39257812 1.44207031 0.19921875 0.73179687 0 0 Z " fill="#5B2EC3" transform="translate(382,620)"/>
<path d="M0 0 C2 3 2 3 2 7 C2.66 7 3.32 7 4 7 C3.67 8.65 3.34 10.3 3 12 C0.97649676 8.96474514 0.67875982 7.80573798 0.375 4.3125 C0.30023438 3.50425781 0.22546875 2.69601562 0.1484375 1.86328125 C0.09945313 1.24839844 0.05046875 0.63351562 0 0 Z " fill="#5729C1" transform="translate(370,578)"/>
<path d="M0 0 C0.66 0.66 1.32 1.32 2 2 C-2.625 6 -2.625 6 -6 6 C-6 5.34 -6 4.68 -6 4 C-4.03852126 2.61061923 -2.03833424 1.2739589 0 0 Z " fill="#4D57D6" transform="translate(673,162)"/>
<path d="M0 0 C0.66 0 1.32 0 2 0 C2.74926071 3.66305234 3.2380014 6.42355152 2 10 C0.68373308 6.38026598 0 3.90432869 0 0 Z " fill="#552CC6" transform="translate(359,248)"/>
</svg>
